<?xml version="1.0" encoding="UTF-8" standalone="no"?>
<!-- Created with Inkscape (http://www.inkscape.org/) -->

<svg
   xmlns:dc="http://purl.org/dc/elements/1.1/"
   xmlns:cc="http://creativecommons.org/ns#"
   xmlns:rdf="http://www.w3.org/1999/02/22-rdf-syntax-ns#"
   xmlns:svg="http://www.w3.org/2000/svg"
   xmlns="http://www.w3.org/2000/svg"
   xmlns:xlink="http://www.w3.org/1999/xlink"
   xmlns:sodipodi="http://sodipodi.sourceforge.net/DTD/sodipodi-0.dtd"
   xmlns:inkscape="http://www.inkscape.org/namespaces/inkscape"
   width="152mm"
   height="229mm"
   viewBox="0 0 538.58268 811.41732"
   id="svg2"
   version="1.1"
   inkscape:version="0.91 r13725"
   sodipodi:docname="cover-inkscape.svg">
  <defs
     id="defs4">
    <linearGradient
       id="linearGradient4190"
       inkscape:collect="always">
      <stop
         id="stop4192"
         offset="0"
         style="stop-color:#000000;stop-opacity:1;" />
      <stop
         id="stop4194"
         offset="1"
         style="stop-color:#000000;stop-opacity:0.97191012" />
    </linearGradient>
    <linearGradient
       inkscape:collect="always"
       id="linearGradient4182">
      <stop
         style="stop-color:#000000;stop-opacity:1;"
         offset="0"
         id="stop4184" />
      <stop
         style="stop-color:#000000;stop-opacity:0;"
         offset="1"
         id="stop4186" />
    </linearGradient>
    <linearGradient
       inkscape:collect="always"
       xlink:href="#linearGradient4182"
       id="linearGradient4164"
       x1="276.87076"
       y1="648.28052"
       x2="367.73566"
       y2="340.40881"
       gradientUnits="userSpaceOnUse" />
    <linearGradient
       inkscape:collect="always"
       xlink:href="#linearGradient4190"
       id="linearGradient4188"
       x1="3.2069972"
       y1="666.98798"
       x2="531.29242"
       y2="780.30188"
       gradientUnits="userSpaceOnUse" />
  </defs>
  <sodipodi:namedview
     id="base"
     pagecolor="#ffffff"
     bordercolor="#666666"
     borderopacity="1.0"
     inkscape:pageopacity="0.0"
     inkscape:pageshadow="2"
     inkscape:zoom="0.93545455"
     inkscape:cx="308.57143"
     inkscape:cy="385.71429"
     inkscape:document-units="mm"
     inkscape:current-layer="layer2"
     showgrid="false"
     inkscape:window-width="1920"
     inkscape:window-height="1057"
     inkscape:window-x="-8"
     inkscape:window-y="-8"
     inkscape:window-maximized="1" />
  <metadata
     id="metadata7">
    <rdf:RDF>
      <cc:Work
         rdf:about="">
        <dc:format>image/svg+xml</dc:format>
        <dc:type
           rdf:resource="http://purl.org/dc/dcmitype/StillImage" />
        <dc:title></dc:title>
      </cc:Work>
    </rdf:RDF>
  </metadata>
  <g
     inkscape:label="Layer 1"
     inkscape:groupmode="layer"
     id="layer1"
     transform="translate(0,-240.94488)">
    <g
       id="g4148"
       transform="matrix(6.7700412,0,0,6.7700412,100.83941,533.11132)">
      <path
         id="path4138"
         d="m 42.95,10.035 -7.27,0 0,-2.76 c 0,-2.38 -1.93,-4.31 -4.31,-4.31 l -12.74,0 c -2.38,0 -4.31,1.93 -4.31,4.31 l 0,2.76 -7.27,0 c -3.34,0 -6.05,2.71 -6.05,6.05 l 0,9.68 c 0,1.39 1.13,2.52 2.52,2.52 l 0.02,0 0,12.04 c 0,3.7 3.0099,6.71 6.71,6.71 l 29.5,0 c 3.7,0 6.71,-3.01 6.71,-6.71 l 0,-12.04 0.02,0 c 1.39,0 2.52,-1.13 2.52,-2.52 l 0,-9.68 c 0,-3.34 -2.71,-6.05 -6.05,-6.05 z M 16.32,7.275 c 0,-1.27 1.04,-2.31 2.31,-2.31 l 12.74,0 c 1.27,0 2.31,1.04 2.31,2.31 l 0,2.75 -17.36,0 0,-2.75 z m 28.14,33.05 c 0,2.6 -2.11,4.71 -4.71,4.71 l -29.5,0 c -2.6,0 -4.71,-2.11 -4.71,-4.71 l 0,-12.04 2.92,0 c 0.18,2.07 1.9,3.7 4.01,3.7 2.11,0 3.83,-1.63 4.02,-3.7 l 17.02,0 c 0.19,2.07 1.91,3.7 4.02,3.7 2.11,0 3.83,-1.63 4.01,-3.7 l 2.92,0 0,12.04 z m -34.04,-12.39 0,-3.34 4.1,0 0,3.34 c 0,1.13 -0.92,2.05 -2.05,2.05 -1.13,0 -2.05,-0.92 -2.05,-2.05 z m 25.06,0 0,-3.34 4.1,0 0,3.34 c 0,1.13 -0.92,2.05 -2.05,2.05 -1.13,0 -2.05,-0.92 -2.05,-2.05 z M 47,25.765 c 0,0.29 -0.23,0.52 -0.52,0.52 l -4.9,0 0,-2.69 c 0,-0.55 -0.45,-1 -1,-1 l -6.1,0 c -0.55,0 -1,0.45 -1,1 l 0,2.69 -16.96,0 0,-2.69 c 0,-0.55 -0.45,-1 -1,-1 l -6.1,0 c -0.55,0 -1,0.45 -1,1 l 0,2.69 -4.9,0 C 3.23,26.285 3,26.055 3,25.765 l 0,-9.68 c 0,-2.24 1.82,-4.05 4.05,-4.05 l 35.9,0 c 2.23,0 4.05,1.81 4.05,4.05 l 0,9.68 z"
         inkscape:connector-curvature="0" />
      <path
         id="path4140"
         d="m 36.13,34.335 -13.16,0.54 c -1.01,-1.82 -2.93,-2.97 -5.04,-2.97 -1.86,0 -3.62,0.91 -4.69,2.43 -0.16,0.23 -0.18,0.53 -0.05,0.78 0.13,0.24 0.39,0.4 0.67,0.4 l 1.8,0 1.02,1.78 -1.02,1.78 -2.23,0 c -0.25,0 -0.49,0.14 -0.63,0.35 -0.14,0.22 -0.15,0.5 -0.04,0.73 0.94,1.98 2.98,3.25 5.17,3.25 2.11,0 4.04,-1.15 5.04,-2.97 l 13.03,0.54 0.14,0 c 1.83,0 3.32,-1.49 3.32,-3.32 0,-1.83 -1.49,-3.32 -3.33,-3.32 z m -0.07,5.14 -13.51,-0.56 c -0.31,-0.03 -0.6,0.17 -0.72,0.45 -0.68,1.55 -2.21,2.54 -3.9,2.54 -1.17,0 -2.29,-0.49 -3.08,-1.33 l 1.24,0 c 0.27,0 0.52,-0.14 0.65,-0.3701 l 1.46,-2.53 c 0.13,-0.24 0.13,-0.52 0,-0.75 l -1.46,-2.53 c -0.1299,-0.24 -0.3799,-0.38 -0.65,-0.38 l -0.35,0 c 0.65,-0.4 1.41,-0.61 2.19,-0.61 1.69,0 3.22,0.99 3.9,2.54 0.12,0.28 0.42,0.48 0.72,0.45 l 13.58,-0.56 c 1.01,0 1.83,0.82 1.83,1.82 0,1 -0.82,1.8201 -1.9,1.8201 z"
         inkscape:connector-curvature="0" />
    </g>
    <rect
       style="opacity:0.486;fill:url(#linearGradient4164);fill-opacity:1;stroke:url(#linearGradient4188);stroke-opacity:1"
       id="rect4156"
       width="539.84448"
       height="815.64624"
       x="1.0689991"
       y="240.99191"
       ry="0.0183756" />
  </g>
  <g
     inkscape:groupmode="layer"
     id="layer2"
     inkscape:label="Layer 2">
    <path
       style="opacity:0.48600003;fill:#00ffff;fill-opacity:0.97191013;stroke:none;stroke-opacity:1"
       d="M 0.85987882,554.67777 C 0.94797247,411.36509 1.2198814,295.42625 1.4641206,297.03591 c 0.4009459,2.64244 1.2937702,3.18289 9.1935714,5.56514 4.812224,1.45116 44.828217,13.27238 88.924427,26.26938 100.964511,29.75845 97.813411,28.7947 97.813411,29.91602 0,0.51831 -13.34913,1.09051 -29.66472,1.27156 l -29.66473,0.32919 -6.14956,2.8819 c -8.60337,4.03183 -16.94536,12.24832 -20.70992,20.39836 l -3.07249,6.65171 0,41.69096 c 0,40.0225 0.0855,41.80572 2.138,44.55836 2.54819,3.41753 9.0124,7.28809 12.17178,7.28809 l 2.25971,0 0,44.25086 c 0,41.04349 0.15301,44.74629 2.11117,51.08607 4.72108,15.28505 18.02288,27.27772 34.02016,30.672 3.97168,0.8427 36.62634,1.20196 109.25253,1.20196 72.62619,0 105.28085,-0.35926 109.25254,-1.20196 15.99728,-3.39428 29.29908,-15.38695 34.02015,-30.672 1.95816,-6.33978 2.11118,-10.04258 2.11118,-51.08607 l 0,-44.25086 2.2597,0 c 3.8393,0 10.20451,-4.32921 12.58026,-8.55631 2.10319,-3.74211 2.26403,-5.59876 2.26403,-26.13649 0,-20.66917 0.12323,-22.06911 1.89327,-21.50732 7.42655,2.3571 103.47919,30.54415 104.08488,30.54415 0.42074,0 0.98498,-0.84184 1.25385,-1.87075 0.26889,-1.02891 0.54469,79.30636 0.61289,178.52284 l 0.12401,180.39358 -269.92226,0 -269.92225155,0 0.16017037,-260.56851 z"
       id="path4197"
       inkscape:connector-curvature="0" />
    <path
       style="opacity:0.48600003;fill:#00ffff;fill-opacity:0.97191013;stroke:none;stroke-opacity:1"
       d="M 0.85987882,554.67777 C 0.94797247,411.36509 1.2198814,295.42625 1.4641206,297.03591 c 0.4009459,2.64244 1.2937702,3.18289 9.1935714,5.56514 4.812224,1.45116 44.828217,13.27238 88.924427,26.26938 100.964511,29.75845 97.813411,28.7947 97.813411,29.91602 0,0.51831 -13.34913,1.09051 -29.66472,1.27156 l -29.66473,0.32919 -6.14956,2.8819 c -8.60337,4.03183 -16.94536,12.24832 -20.70992,20.39836 l -3.07249,6.65171 0,41.69096 c 0,40.0225 0.0855,41.80572 2.138,44.55836 2.54819,3.41753 9.0124,7.28809 12.17178,7.28809 l 2.25971,0 0,44.25086 c 0,41.04349 0.15301,44.74629 2.11117,51.08607 4.72108,15.28505 18.02288,27.27772 34.02016,30.672 3.97168,0.8427 36.62634,1.20196 109.25253,1.20196 72.62619,0 105.28085,-0.35926 109.25254,-1.20196 15.99728,-3.39428 29.29908,-15.38695 34.02015,-30.672 1.95816,-6.33978 2.11118,-10.04258 2.11118,-51.08607 l 0,-44.25086 2.2597,0 c 3.8393,0 10.20451,-4.32921 12.58026,-8.55631 2.10319,-3.74211 2.26403,-5.59876 2.26403,-26.13649 0,-20.66917 0.12323,-22.06911 1.89327,-21.50732 7.42655,2.3571 103.47919,30.54415 104.08488,30.54415 0.42074,0 0.98498,-0.84184 1.25385,-1.87075 0.26889,-1.02891 0.54469,79.30636 0.61289,178.52284 l 0.12401,180.39358 -269.92226,0 -269.92225155,0 0.16017037,-260.56851 z"
       id="path4199"
       inkscape:connector-curvature="0" />
    <path
       style="opacity:0.48600003;fill:#00ffff;fill-opacity:0.97191013;stroke:none;stroke-opacity:1"
       d="M 0.85987882,554.67777 C 0.94797247,411.36509 1.2198814,295.42625 1.4641206,297.03591 c 0.4009459,2.64244 1.2937702,3.18289 9.1935714,5.56514 4.812224,1.45116 44.828217,13.27238 88.924427,26.26938 100.964511,29.75845 97.813411,28.7947 97.813411,29.91602 0,0.51831 -13.34913,1.09051 -29.66472,1.27156 l -29.66473,0.32919 -6.14956,2.8819 c -8.60337,4.03183 -16.94536,12.24832 -20.70992,20.39836 l -3.07249,6.65171 0,41.69096 c 0,40.0225 0.0855,41.80572 2.138,44.55836 2.54819,3.41753 9.0124,7.28809 12.17178,7.28809 l 2.25971,0 0,44.25086 c 0,41.04349 0.15301,44.74629 2.11117,51.08607 4.72108,15.28505 18.02288,27.27772 34.02016,30.672 3.97168,0.8427 36.62634,1.20196 109.25253,1.20196 72.62619,0 105.28085,-0.35926 109.25254,-1.20196 15.99728,-3.39428 29.29908,-15.38695 34.02015,-30.672 1.95816,-6.33978 2.11118,-10.04258 2.11118,-51.08607 l 0,-44.25086 2.2597,0 c 3.8393,0 10.20451,-4.32921 12.58026,-8.55631 2.10319,-3.74211 2.26403,-5.59876 2.26403,-26.13649 0,-20.66917 0.12323,-22.06911 1.89327,-21.50732 7.42655,2.3571 103.47919,30.54415 104.08488,30.54415 0.42074,0 0.98498,-0.84184 1.25385,-1.87075 0.26889,-1.02891 0.54469,79.30636 0.61289,178.52284 l 0.12401,180.39358 -269.92226,0 -269.92225155,0 0.16017037,-260.56851 z"
       id="path4201"
       inkscape:connector-curvature="0" />
  </g>
</svg>
