<svg xmlns="http://www.w3.org/2000/svg" enable-background="new 0 0 50 50" viewBox="0 0 50 50"><path d="M42.95,10.035h-7.27v-2.76c0-2.38-1.93-4.31-4.31-4.31H18.63c-2.38,0-4.31,1.93-4.31,4.31v2.76H7.05
		c-3.34,0-6.05,2.71-6.05,6.05v9.68c0,1.39,1.13,2.52,2.52,2.52h0.02v12.04c0,3.7,3.0099,6.71,6.71,6.71h29.5
		c3.7,0,6.71-3.01,6.71-6.71v-12.04h0.02c1.39,0,2.52-1.13,2.52-2.52v-9.68C49,12.745,46.29,10.035,42.95,10.035z M16.32,7.275
		c0-1.27,1.04-2.31,2.31-2.31h12.74c1.27,0,2.31,1.04,2.31,2.31v2.75H16.32V7.275z M44.46,40.325c0,2.6-2.11,4.71-4.71,4.71h-29.5
		c-2.6,0-4.71-2.11-4.71-4.71v-12.04h2.92c0.18,2.07,1.9,3.7,4.01,3.7s3.83-1.63,4.02-3.7h17.02c0.19,2.07,1.91,3.7,4.02,3.7
		s3.83-1.63,4.01-3.7h2.92V40.325z M10.42,27.935v-3.34h4.1v3.34c0,1.13-0.92,2.05-2.05,2.05S10.42,29.065,10.42,27.935z
		 M35.48,27.935v-3.34h4.1v3.34c0,1.13-0.92,2.05-2.05,2.05S35.48,29.065,35.48,27.935z M47,25.765c0,0.29-0.23,0.52-0.52,0.52h-4.9
		v-2.69c0-0.55-0.45-1-1-1h-6.1c-0.55,0-1,0.45-1,1v2.69H16.52v-2.69c0-0.55-0.45-1-1-1h-6.1c-0.55,0-1,0.45-1,1v2.69h-4.9
		c-0.29,0-0.52-0.23-0.52-0.52v-9.68c0-2.24,1.82-4.05,4.05-4.05h35.9c2.23,0,4.05,1.81,4.05,4.05V25.765z"/><path d="M36.13,34.335l-13.16,0.54c-1.01-1.82-2.93-2.97-5.04-2.97c-1.86,0-3.62,0.91-4.69,2.43c-0.16,0.23-0.18,0.53-0.05,0.78
		c0.13,0.24,0.39,0.4,0.67,0.4h1.8l1.02,1.78l-1.02,1.78h-2.23c-0.25,0-0.49,0.14-0.63,0.35c-0.14,0.22-0.15,0.5-0.04,0.73
		c0.94,1.98,2.98,3.25,5.17,3.25c2.11,0,4.04-1.15,5.04-2.97L36,40.975h0.14c1.83,0,3.32-1.49,3.32-3.32
		C39.46,35.825,37.97,34.335,36.13,34.335z M36.06,39.475l-13.51-0.56c-0.31-0.03-0.6,0.17-0.72,0.45c-0.68,1.55-2.21,2.54-3.9,2.54
		c-1.17,0-2.29-0.49-3.08-1.33h1.24c0.27,0,0.52-0.14,0.65-0.3701l1.46-2.53c0.13-0.24,0.13-0.52,0-0.75l-1.46-2.53
		c-0.1299-0.24-0.3799-0.38-0.65-0.38h-0.35c0.65-0.4,1.41-0.61,2.19-0.61c1.69,0,3.22,0.99,3.9,2.54c0.12,0.28,0.42,0.48,0.72,0.45
		l13.58-0.56c1.01,0,1.83,0.82,1.83,1.82S37.14,39.475,36.06,39.475z"/></svg>